<mxfile host="app.diagrams.net" modified="2023-09-29T09:41:21.500Z" agent="Mozilla/5.0 (Macintosh; Intel Mac OS X 10_15_7) AppleWebKit/537.36 (KHTML, like Gecko) Chrome/117.0.0.0 Safari/537.36" version="21.7.5" etag="GyD7wu3a2wodNcXe8Y1f" type="github">
  <diagram name="Page-1" id="uU4c2skdO5yZ9_GOLMR7">
    <mxGraphModel>
      <root>
        <mxCell id="0" />
        <mxCell id="1" parent="0" />
      </root>
    </mxGraphModel>
  </diagram>
</mxfile>
